<svg xmlns="http://www.w3.org/2000/svg" xml:space="preserve" width="128" height="128" viewBox="0 0 24 24"><path fill="#607D8B" d="M21.25 24h-6.5A2.752 2.752 0 0 1 12 21.25v-6.5A2.752 2.752 0 0 1 14.75 12h6.5A2.752 2.752 0 0 1 24 14.75v6.5A2.752 2.752 0 0 1 21.25 24z"/><path fill="#2196F3" d="M9.25 12h-6.5A2.752 2.752 0 0 1 0 9.25v-6.5A2.752 2.752 0 0 1 2.75 0h6.5A2.752 2.752 0 0 1 12 2.75v6.5A2.752 2.752 0 0 1 9.25 12z"/><path fill="#FFF" d="M20.25 17.5h-4.5a.75.75 0 0 1 0-1.5h4.5a.75.75 0 0 1 0 1.5z"/><path fill="#FFF" d="M18 17.25a.75.75 0 0 1-.75-.75v-.75a.75.75 0 0 1 1.5 0v.75a.75.75 0 0 1-.75.75z"/><path fill="#FFF" d="M20.25 21a.71.71 0 0 1-.17-.02c-2.518-.586-3.993-1.463-4.08-4.207a.75.75 0 0 1 .726-.773.74.74 0 0 1 .773.726c.051 1.598.48 2.225 2.92 2.793A.75.75 0 0 1 20.25 21z"/><path fill="#FFF" d="M15.75 21a.75.75 0 0 1-.169-1.48c2.44-.568 2.87-1.196 2.92-2.793.013-.415.347-.767.773-.726a.75.75 0 0 1 .726.773c-.086 2.744-1.562 3.62-4.08 4.207a.764.764 0 0 1-.17.019zM7.25 9a.75.75 0 0 1-.75-.75V5a.5.5 0 0 0-1 0v3.25a.75.75 0 0 1-1.5 0V5c0-1.103.897-2 2-2s2 .897 2 2v3.25a.75.75 0 0 1-.75.75z"/><path fill="#FFF" d="M7.25 7.5h-2.5a.75.75 0 0 1 0-1.5h2.5a.75.75 0 0 1 0 1.5z"/><path fill="#90A4AE" d="M19 9a1 1 0 0 1-1-1V7c0-.551-.449-1-1-1h-1a1 1 0 0 1 0-2h1c1.654 0 3 1.346 3 3v1a1 1 0 0 1-1 1zM8 20H7c-1.654 0-3-1.346-3-3v-1a1 1 0 0 1 2 0v1c0 .551.449 1 1 1h1a1 1 0 0 1 0 2z"/></svg>