<?xml version="1.0" standalone="no"?><!DOCTYPE svg PUBLIC "-//W3C//DTD SVG 1.1//EN" "http://www.w3.org/Graphics/SVG/1.1/DTD/svg11.dtd"><svg t="1698576612510" class="icon" viewBox="0 0 1024 1024" version="1.1" xmlns="http://www.w3.org/2000/svg" p-id="5192" xmlns:xlink="http://www.w3.org/1999/xlink" width="200" height="200"><path d="M824 577.9c-7.8 0-15.6-3.3-21.1-9.7-70.4-82.9-173.1-130.7-281.9-131.3-15.3-0.1-27.6-12.5-27.5-27.8 0.1-15.2 12.4-27.5 27.6-27.5h0.1c124.9 0.6 242.9 55.6 323.8 150.7 9.9 11.6 8.5 29.1-3.2 38.9-5.1 4.5-11.5 6.7-17.8 6.7zM220.2 570.8c-6.5 0-13.1-2.3-18.4-7-11.4-10.2-12.4-27.6-2.3-39 53.9-60.5 124.1-104.3 203.1-126.7 14.7-4 30 4.4 34.1 19.1 4.2 14.7-4.4 29.9-19.1 34.1-68.9 19.5-130.1 57.6-176.9 110.2-5.3 6.2-12.9 9.3-20.5 9.3z" fill="#c2c2c2" p-id="5193"></path><path d="M216.9 574.6c-6.4 0-12.8-2.2-18-6.7-11.6-10-12.9-27.4-2.9-39l3.6-4.1c10.1-11.4 27.6-12.4 39-2.2 11.4 10.2 12.4 27.6 2.2 39l-3 3.4c-5.4 6.4-13.1 9.6-20.9 9.6zM355.6 680.5c-6.4 0-12.9-2.2-18.1-6.8-11.5-10-12.7-27.4-2.7-39 46.6-53.6 114-84.4 184.9-84.4 14.8 0 29.9 1.5 46.1 4.6 15 2.9 24.8 17.3 21.9 32.3-2.9 15-17.2 24.8-32.3 21.9-12.7-2.4-24.4-3.6-35.6-3.6-55 0-107.2 23.8-143.2 65.3-5.6 6.5-13.3 9.7-21 9.7zM976 487.5c-7.8 0-15.6-3.3-21.1-9.7-111.3-130.9-273.5-206-445.1-206-42.2 0-84.7 4.7-126.5 13.9-14.9 3.4-29.6-6.1-32.9-21-3.3-14.9 6.1-29.6 21-32.9 45.7-10.1 92.2-15.3 138.4-15.3 187.9 0 365.5 82.2 487.2 225.4 9.9 11.6 8.5 29.1-3.2 38.9-5.1 4.5-11.4 6.7-17.8 6.7zM48 482.5c-6.4 0-12.9-2.2-18.1-6.8-11.5-10-12.7-27.4-2.7-39 65.2-75 149.4-134.8 243.5-172.9 14.2-5.7 30.2 1.1 36 15.3 5.7 14.1-1.1 30.3-15.3 36-86.1 34.8-163.1 89.4-222.6 157.9-5.4 6.3-13.1 9.5-20.8 9.5zM529.1 921.9c-47.6 0-86.3-38.7-86.3-86.3 0-47.6 38.7-86.3 86.3-86.3 47.6 0 86.3 38.7 86.3 86.3 0.1 47.6-38.7 86.3-86.3 86.3z m0-117.4c-17.1 0-31.1 13.9-31.1 31.1 0 17.1 13.9 31.1 31.1 31.1 17.1 0 31.1-13.9 31.1-31.1 0-17.1-13.9-31.1-31.1-31.1z" fill="#c2c2c2" p-id="5194"></path><path d="M778.5 817.7c-19.8 0-39.1-8.2-52.8-22.6L540.6 601.2c-10.5-11-10.1-28.5 0.9-39s28.5-10.2 39 0.9l185.1 193.8c6.6 6.9 18.3 7.2 25.2 0.6 7.1-6.8 7.4-18.1 0.6-25.2L501.1 428.4c-10.5-11-10.1-28.5 0.9-39.1 11-10.5 28.5-10.2 39.1 0.9l290.3 303.9c27.8 29.2 26.8 75.5-2.4 103.3-13.7 13.1-31.6 20.3-50.5 20.3z" fill="#c2c2c2" p-id="5195"></path><path d="M560.5 609.8c-7.3 0-14.6-2.9-20-8.5L390.2 443.9c-10.5-11-10.1-28.5 0.9-39.1 11-10.5 28.5-10.2 39.1 0.9l150.3 157.4c10.5 11 10.1 28.5-0.9 39.1-5.3 5-12.2 7.6-19.1 7.6z" fill="#c2c2c2" p-id="5196"></path><path d="M410.2 452.4c-7.3 0-14.6-2.9-20-8.6L261 308.6c-10.5-11-10.1-28.5 0.9-39s28.5-10.2 39 0.9l129.2 135.3c10.5 11 10.1 28.5-0.9 39-5.2 5.1-12.1 7.6-19 7.6zM521.1 436.9c-7.3 0-14.6-2.9-20-8.6L357.4 277.8c-10.5-11-10.1-28.5 0.9-39s28.5-10.2 39 0.9L541 390.2c10.5 11 10.1 28.5-0.9 39-5.2 5.2-12.1 7.7-19 7.7z" fill="#c2c2c2" p-id="5197"></path><path d="M281 317.1c-7.3 0-14.6-2.9-20-8.5l-79.2-83c-27.8-29.2-26.7-75.5 2.4-103.3 14.1-13.5 33.3-20.6 52.1-20.2 19.5 0.4 37.7 8.5 51.2 22.6l109.9 115c10.5 11 10.1 28.5-0.9 39.1-11 10.5-28.5 10.1-39.1-0.9l-109.9-115c-3.3-3.5-7.7-5.4-12.5-5.5-5.6-0.2-9.3 1.6-12.7 4.9-7.1 6.8-7.4 18.1-0.6 25.2l79.2 83c10.5 11 10.1 28.5-0.9 39.1-5.3 5-12.1 7.5-19 7.5z" fill="#c2c2c2" p-id="5198"></path></svg>